#N canvas 152 198 990 689 12;
#X declare -path commonAbstract;
#X text 25 14 Bob Kammauff (kmw3kx) 2/24/26 Main - Exercise 3;
#X obj 169 395 *~;
#X obj 522 272 lop~ 10;
#X obj 530 346 rmstodb~;
#X obj 522 296 *~ 100;
#X obj 530 370 -~ 100;
#X obj 530 394 scale~ 0 50 0 1;
#X obj 452 100 declare -path commonAbstract;
#X obj 187 234 breathPressure;
#X obj 18 62 MPR121;
#X obj 155 68 Encoder;
#N canvas 872 241 566 370 datatom 0;
#X obj 60 16 inlet;
#X obj 191 132 inlet;
#X text 109 19 valves touched;
#X text 244 133 octave;
#X floatatom 191 156 5 -4 4 0 - - - 0;
#X obj 60 40 t b l;
#X floatatom 146 179 5 0 0 0 - - - 0;
#X obj 191 179 * 12;
#X obj 163 242 +;
#X obj 191 203 t b f;
#X floatatom 163 266 5 0 0 0 - - - 0;
#X obj 180 292 + 60;
#X obj 269 217 r transpose;
#X obj 180 316 outlet;
#X obj 104 66 unpack f f f f f;
#X obj 271 7 loadbang;
#X msg 271 31 0 0 0 0 0;
#X obj 46 102 expr $f1*-2 +$f2*-1 + $f3*-3 + $f4*-5 + $f5*7;
#X connect 0 0 5 0;
#X connect 1 0 4 0;
#X connect 4 0 7 0;
#X connect 5 0 17 0;
#X connect 5 1 14 0;
#X connect 6 0 8 0;
#X connect 7 0 9 0;
#X connect 8 0 10 0;
#X connect 9 0 8 0;
#X connect 9 1 8 1;
#X connect 10 0 11 0;
#X connect 11 0 13 0;
#X connect 12 0 11 1;
#X connect 14 0 17 0;
#X connect 14 1 17 1;
#X connect 14 2 17 2;
#X connect 14 3 17 3;
#X connect 14 4 17 4;
#X connect 15 0 16 0;
#X connect 16 0 14 0;
#X connect 17 0 6 0;
#X restore 80 112 pd datatom;
#X floatatom 80 136 5 0 0 0 - - - 0;
#X obj 284 403 output~;
#X obj 420 312 osc~ 440;
#X obj 282 277 loadbang;
#X obj 282 301 tgl 19 0 empty empty empty 0 -10 0 12 #fcfcfc #000000 #000000 0 1;
#X obj 59 266 pack f 5;
#X floatatom 148 185 5 0 0 0 - - - 0;
#X text 187 181 portamento (ms);
#X obj 59 290 vline~;
#X obj 282 349 line~;
#X obj 282 325 pack f 50;
#X obj 511 60 MIDI_settings;
#X obj 323 45 loadbang;
#X obj 323 93 s transpose;
#X msg 323 69 58;
#X text 356 70 For Bb Fingerings;
#X obj 169 145 r port;
#X text 288 528 Sending to scope;
#X obj 204 484 r~ breath;
#N canvas 256 256 794 447 biteSensor 1;
#X obj 144 84 adc~ 6;
#X text 203 84 bela A3;
#X text 290 83 Wire up FSR as a voltage divider with a 10kOhm;
#X obj 254 183 tgl 19 0 empty empty empty 0 -10 0 12 #fcfcfc #000000 #000000 0 1;
#X obj 173 124 threshold~ 0.182 0 0.182 0;
#X msg 174 150 0;
#X msg 337 151 1;
#X obj 245 235 vline~;
#X obj 245 213 pack f 50;
#X text 418 139 Detects if it is plugged in;
#X obj 137 207 lop~ 10;
#X obj 97 265 scale~ 0 1 -5 5;
#X obj 144 360 outlet~;
#X obj 205 304 *~;
#X obj 85 160 dac~ 30;
#X connect 0 0 4 0;
#X connect 0 0 10 0;
#X connect 0 0 14 0;
#X connect 3 0 8 0;
#X connect 4 0 5 0;
#X connect 4 1 6 0;
#X connect 5 0 3 0;
#X connect 6 0 3 0;
#X connect 7 0 13 1;
#X connect 8 0 7 0;
#X connect 10 0 11 0;
#X connect 11 0 13 0;
#X connect 13 0 12 0;
#X restore 111 312 pd biteSensor;
#X obj 147 441 dac~ 1 2 3;
#X obj 66 325 +~;
#X obj 66 349 mtof~;
#X obj 459 489 oscilloscope;
#A saved 0 400 1 -1;
#X obj 148 360 simpleSound;
#X obj 162 528 .dac~ 27 28 29 30;
#X connect 1 0 32 0;
#X connect 1 0 32 1;
#X connect 1 0 32 2;
#X connect 1 0 35 0;
#X connect 1 0 37 0;
#X connect 2 0 4 0;
#X connect 3 0 5 0;
#X connect 4 0 3 0;
#X connect 5 0 6 0;
#X connect 8 0 36 1;
#X connect 8 1 36 2;
#X connect 9 0 11 0;
#X connect 10 0 11 1;
#X connect 11 0 12 0;
#X connect 12 0 17 0;
#X connect 15 0 16 0;
#X connect 16 0 22 0;
#X connect 17 0 20 0;
#X connect 18 0 17 1;
#X connect 20 0 33 0;
#X connect 21 0 1 1;
#X connect 22 0 21 0;
#X connect 24 0 26 0;
#X connect 26 0 25 0;
#X connect 28 0 18 0;
#X connect 30 0 37 1;
#X connect 31 0 33 1;
#X connect 33 0 34 0;
#X connect 34 0 36 0;
#X connect 36 0 1 0;
