#N canvas 911 282 897 752 12;
#X declare -path commonAbstract;
#X obj 175 87 inlet~;
#X obj 278 77 inlet~;
#X text 127 86 suck;
#X text 239 81 blow;
#X text 11 91 pitch;
#X obj 84 715 outlet~;
#X obj 60 87 inlet~;
#X obj 452 100 declare -path commonAbstract;
#X obj 546 677 output~;
#X text 51 31 Bob Kammauff (kmw3kx) 4/9/26 I wanna make a sound that I'd actually want to play;
#X obj 66 353 -~ 1;
#X obj 64 328 *~ 2;
#X obj 58 291 phasor~ 1;
#X obj 144 183 osc~;
#X obj 174 234 *~;
#X obj 229 174 *~;
#X obj 363 321 pow~ 0.5;
#X obj 265 135 pow~ 1.5;
#X obj 363 345 scale~ 0 1 1 0;
#X obj 105 251 +~;
#X obj 249 377 bp~ 365 7;
#X obj 218 234 *~;
#X obj 279 177 +~ 1;
#X obj 20 475 lop~ 200;
#X obj 56 612 *~;
#X obj 122 605 *~;
#X obj 87 467 bob~;
#X obj 191 470 bp~ 1000 5;
#X obj 90 651 clip~ -1 1;
#X obj 229 277 *~ 3;
#X obj 90 675 *~;
#X connect 1 0 16 0;
#X connect 1 0 17 0;
#X connect 1 0 30 1;
#X connect 6 0 13 0;
#X connect 6 0 15 0;
#X connect 6 0 19 0;
#X connect 10 0 23 0;
#X connect 10 0 26 0;
#X connect 10 0 20 0;
#X connect 10 0 27 0;
#X connect 11 0 10 0;
#X connect 12 0 11 0;
#X connect 13 0 14 0;
#X connect 14 0 19 1;
#X connect 15 0 14 1;
#X connect 15 0 21 0;
#X connect 16 0 18 0;
#X connect 17 0 15 1;
#X connect 17 0 22 0;
#X connect 17 0 24 1;
#X connect 18 0 25 1;
#X connect 19 0 12 0;
#X connect 20 0 25 0;
#X connect 21 0 29 0;
#X connect 22 0 21 1;
#X connect 23 0 24 0;
#X connect 24 0 28 0;
#X connect 25 0 28 0;
#X connect 26 0 24 0;
#X connect 27 0 25 0;
#X connect 28 0 30 0;
#X connect 29 0 26 1;
#X connect 30 0 5 0;
