#N canvas 803 244 876 703 12;
#X text 100 93 Bela A0;
#X text 44 5 Bob Kammauff (kmw3kx) 2/24/26 Pressure Sensor Reads Pressure Sensor & Print it to the console;
#X obj 164 163 s~ breath;
#X obj 35 98 loadbang;
#X obj 58 63 bng 19 250 50 0 empty empty empty 0 -10 0 12 #fcfcfc #000000 #000000;
#X obj 152 92 adc~ 3;
#X obj 35 122 tgl 19 0 empty empty empty 0 -10 0 12 #fcfcfc #000000 #000000 0 1;
#X obj 102 194 r~ breath;
#X obj 184 392 clip~ 0 1;
#X msg 653 402 0;
#X msg 518 413 1;
#X obj 536 467 tgl 19 0 empty empty empty 0 -10 0 12 #fcfcfc #000000 #000000 0 1;
#X obj 349 431 tgl 19 0 empty empty empty 0 -10 0 12 #fcfcfc #000000 #000000 0 1;
#X obj 489 375 threshold~ 0.1845 0 0.1845 0;
#X text 517 349 measured max was 0.1845;
#X obj 268 372 threshold~ 0.182 0 0.182 0;
#X text 289 347 measured min was 0.1824;
#X text -88 468 subtract from measured average: 0.1833;
#X obj 271 484 *~;
#X obj 428 514 *~;
#X text 315 325 Suck;
#X text 574 328 Blow;
#X obj 283 725 outlet~;
#X obj 455 724 outlet~;
#X obj 349 455 sig~;
#X obj 536 491 sig~;
#X obj 319 113 sig~;
#X floatatom 345 50 5 0 1000 0 - - - 0;
#X floatatom 378 105 5 0 0 0 - - - 0;
#X obj 345 80 / 1000;
#X obj 159 123 *~;
#X obj 443 111 spigot;
#X obj 224 71 tgl 19 0 empty empty empty 0 -10 0 12 #fcfcfc #000000 #000000 0 1;
#X obj 224 119 tgl 19 0 empty empty empty 0 -10 0 12 #fcfcfc #000000 #000000 0 1;
#X obj 224 95 == 0;
#X obj 236 39 loadbang;
#X obj 275 121 *~;
#X obj 27 166 metro 1000;
#X obj 25 261 snapshot~;
#X floatatom 25 285 12 0 0 0 - - - 0;
#X obj 25 308 print breathSnap;
#X obj 468 425 == 0;
#X obj 435 459 == 0;
#X obj 265 573 clip~ 0 1;
#X obj 441 573 clip~ 0 1;
#X obj 448 693 pow~ 0.7;
#X obj 186 447 -~ 0.1833;
#X msg 269 398 0;
#X msg 432 399 1;
#X obj 266 548 scale~ 0 -0.1833 0 1;
#X obj 277 690 pow~ 2;
#N canvas 69 208 450 450 calibrate 0;
#X obj 67 39 inlet~;
#X obj 218 26 array define -k \$0-sample 128;
#A 0 1.00452 -0.492464 0.942094 -0.395168 0.337541 -0.259832 -0.750501 0.432136 -0.278565 0.472061 -0.141693 0.648127 0.207917 0.602307 -0.928061 -0.804888 -0.628352 0.753146 -0.306673 -0.425519 0.138364 -0.933165 -0.39696 -0.106423 -0.887 -0.497474 -0.162589 -0.587421 0.407814 0.633141 0.166656 -0.408628 0.970515 0.942246 0.173006 -0.363578 -0.587616 0.620927 -0.171173 0.547653 0.336405 -0.135336 -0.425254 -0.33468 0.165381 -0.329792 -0.102221 -0.283113 0.47007 -0.867548 0.409453 0.363898 0.797298 -0.75869 0.423929 0.248855 0.998096 -0.821408 -0.963866 -0.457908 -0.944185 -0.885125 0.699879 0.98865 0.414258 -0.493619 0.305987 -0.544848 0.8058 0.891853 -0.239582 -0.0233232 0.579518 0.189427 0.0623948 0.303638 0.52931 -0.506491 0.882525 -0.0513469 -0.777975 -0.628349 -0.359071 -0.266576 -0.174413 0.661421 0.085364 -0.164391 0.437117 0.767286 0.369349 0.335698 -0.0889388 0.457479 0.630288 0.263888 -0.812684 -0.839122 0.0675994 -0.853041 0.119352 0.763883 -0.479163 -0.944855 -0.197663 -0.0927136 -0.452184 -0.850983 0.401264 0.78315 0.00273812 0.726348 0.479077 0.431681 -0.885682 0.768997 -0.175208 0.538106 0.0639069 -0.010223 -0.218376 -0.270454 -0.936384 -0.620665 -0.924885 0.371891 0.934446 -0.746975;
#X obj 66 108 tabwrite~ \$0-sample;
#X obj 110 182 array sum \$0-sample;
#X obj 250 182 array size \$0-sample;
#X obj 249 50 loadbang;
#X obj 249 74 delay 500;
#X obj 249 98 delay 500;
#X floatatom 250 206 5 0 0 0 - - - 0;
#X floatatom 110 206 5 0 0 0 - - - 0;
#X obj 249 122 t b b;
#X obj 179 237 /;
#X floatatom 179 261 5 0 0 0 Mean - - 0;
#X obj 171 34 bng 19 250 50 0 empty empty empty 0 -10 0 12 #fcfcfc #000000 #000000;
#X obj 175 352 pack f f f;
#X obj 175 376 outlet;
#X obj 253 263 array min \$0-sample;
#X obj 296 312 array max \$0-sample;
#X floatatom 253 287 5 0 0 0 - - - 0;
#X floatatom 296 336 5 0 0 0 - - - 0;
#X connect 0 0 2 0;
#X connect 3 0 9 0;
#X connect 4 0 8 0;
#X connect 5 0 6 0;
#X connect 6 0 7 0;
#X connect 6 0 2 0;
#X connect 7 0 10 0;
#X connect 8 0 11 1;
#X connect 9 0 11 0;
#X connect 10 0 3 0;
#X connect 10 1 4 0;
#X connect 10 1 16 0;
#X connect 10 1 17 0;
#X connect 11 0 12 0;
#X connect 12 0 14 0;
#X connect 13 0 6 0;
#X connect 14 0 15 0;
#X connect 16 0 14 1;
#X connect 16 0 18 0;
#X connect 17 0 14 2;
#X connect 17 0 19 0;
#X restore 503 154 pd calibrate;
#X obj 503 199 unpack f f f;
#X msg 603 275 add2 \$1 0 \$1 0;
#X msg 728 277 set set;
#X msg 591 305 set 1.00452 0 1.00452 0;
#X obj 592 237 t b f b;
#X msg 312 275 add2 \$1 0 \$1 0;
#X msg 437 277 set set;
#X msg 300 305 set -0.963866 0 -0.963866 0;
#X obj 308 237 t b f b;
#X obj 336 150 noise~;
#X obj 441 549 scale~ 0.1833 1 0 1;
#X obj 322 511 * -1;
#X obj 316 614 r n_suck;
#X obj 542 601 r n_blow;
#X obj 316 638 scale 0 127 0.01 10;
#X obj 339 696 print n_suck;
#X obj 527 643 scale 0 127 0.01 10;
#X obj 543 693 print n_blow;
#X obj 632 550 hsl 162 19 0 127 0 0 empty empty empty -2 -10 0 12 #fcfcfc #000000 #000000 0 1;
#X connect 3 0 6 0;
#X connect 4 0 6 0;
#X connect 5 0 30 0;
#X connect 6 0 37 0;
#X connect 7 0 8 0;
#X connect 7 0 15 0;
#X connect 7 0 13 0;
#X connect 7 0 38 0;
#X connect 8 0 19 0;
#X connect 8 0 46 0;
#X connect 9 0 11 0;
#X connect 10 0 11 0;
#X connect 10 0 42 0;
#X connect 11 0 25 0;
#X connect 12 0 24 0;
#X connect 13 0 10 0;
#X connect 13 1 9 0;
#X connect 15 0 47 0;
#X connect 15 1 48 0;
#X connect 18 0 49 0;
#X connect 19 0 62 0;
#X connect 24 0 18 1;
#X connect 25 0 19 1;
#X connect 26 0 36 1;
#X connect 27 0 29 0;
#X connect 29 0 26 0;
#X connect 29 0 28 0;
#X connect 30 0 2 0;
#X connect 32 0 30 1;
#X connect 32 0 34 0;
#X connect 33 0 36 0;
#X connect 34 0 33 0;
#X connect 35 0 32 0;
#X connect 36 0 2 0;
#X connect 37 0 38 0;
#X connect 38 0 39 0;
#X connect 39 0 40 0;
#X connect 43 0 50 0;
#X connect 44 0 45 0;
#X connect 45 0 23 0;
#X connect 46 0 18 0;
#X connect 47 0 12 0;
#X connect 48 0 12 0;
#X connect 48 0 41 0;
#X connect 49 0 43 0;
#X connect 50 0 22 0;
#X connect 52 1 60 0;
#X connect 52 2 56 0;
#X connect 53 0 55 0;
#X connect 54 0 55 0;
#X connect 56 0 55 0;
#X connect 56 1 53 0;
#X connect 56 2 54 0;
#X connect 57 0 59 0;
#X connect 58 0 59 0;
#X connect 60 0 59 0;
#X connect 60 1 57 0;
#X connect 60 2 58 0;
#X connect 62 0 44 0;
#X connect 63 0 49 2;
#X connect 64 0 66 0;
#X connect 65 0 68 0;
#X connect 66 0 67 0;
#X connect 66 0 50 1;
#X connect 68 0 45 1;
#X connect 68 0 69 0;
#X connect 70 0 68 0;
