#N canvas 673 150 1069 867 12;
#X text 44 5 Bob Kammauff (kmw3kx) 2/24/26 Pressure Sensor Reads Pressure Sensor & Print it to the console;
#X obj 58 63 bng 19 250 50 0 empty empty empty 0 -10 0 12 #fcfcfc #000000 #000000;
#X obj 35 122 tgl 19 0 empty empty empty 0 -10 0 12 #fcfcfc #000000 #000000 0 1;
#X obj 102 194 r~ breath;
#X obj 98 368 outlet~;
#X obj 270 367 outlet~;
#X obj 27 166 metro 1000;
#X obj 25 261 snapshot~;
#X floatatom 25 285 12 0 0 0 - - - 0;
#X obj 25 308 print breathSnap;
#X obj 35 98 .loadbang;
#N canvas 432 25 1021 833 readAnalog 0;
#X obj 225 718 outlet~;
#X obj 167 -4 adc~ 3 4 5;
#X text 83 -6 Bela A0-2;
#X text 498 503 A0 goes to the breath sensor;
#X text 437 575 A1 goes to the trigger pot (sets the threshold for the blowing);
#X text 435 629 A2 goes to the mapping pot (sets the exponent that the breath signal is scaled by);
#X text 298 356 max breath reading;
#X obj 203 608 pow~;
#X obj 344 470 lop~ 10;
#X obj 360 801 dac~ 27 28 29;
#X obj 430 66 hsl 162 19 0 0.8 0 0 empty empty empty -2 -10 0 12 #fcfcfc #000000 #000000 0 1;
#X floatatom 427 90 5 0 0 0 - - - 0;
#X obj 187 175 *~;
#X obj 336 102 tgl 19 0 empty empty empty 0 -10 0 12 #fcfcfc #000000 #000000 0 1;
#X obj 336 150 tgl 19 0 empty empty empty 0 -10 0 12 #fcfcfc #000000 #000000 0 1;
#X obj 336 126 == 0;
#X obj 348 70 loadbang;
#X obj 380 188 *~;
#X obj 476 91 hsl 162 19 0 0.5 0 0 empty empty empty -2 -10 0 12 #fcfcfc #000000 #000000 0 1;
#X floatatom 473 115 5 0 0 0 - - - 0;
#X obj 473 138 sig~;
#X obj 539 118 hsl 162 19 0.1 3 0 0 empty empty empty -2 -10 0 12 #fcfcfc #000000 #000000 0 1;
#X obj 516 165 sig~;
#X obj 432 190 snake~ in 3;
#X obj 154 130 snake~ in 3;
#X floatatom 541 413 5 0 0 0 - - - 0;
#X obj 541 383 snapshot~;
#X obj 565 325 metro 200;
#X floatatom 623 413 5 0 0 0 - - - 0;
#X obj 623 383 snapshot~;
#X floatatom 461 413 5 0 0 0 - - - 0;
#X obj 461 383 snapshot~;
#X obj 181 229 snake~ out 3, f 16;
#X obj 587 241 tgl 19 0 empty empty empty 0 -10 0 12 #fcfcfc #000000 #000000 0 1;
#X obj 587 289 tgl 19 0 empty empty empty 0 -10 0 12 #fcfcfc #000000 #000000 0 1;
#X obj 587 265 == 0;
#X obj 599 209 loadbang;
#X obj 616 354 s \$0-update;
#X obj 71 653 r \$0-update;
#X obj 55 681 snapshot~;
#X floatatom 55 705 10 0 0 0 - - - 0;
#X obj 63 431 scaleSig~;
#X obj 173 348 sig~ 0.8;
#X text 494 468 Trying to scale the signal from the breath sensor;
#X obj 170 402 sig~ 1;
#X obj 172 377 sig~ 0;
#X msg 223 520 0;
#X msg 133 515 1;
#X obj 174 545 tgl 19 0 empty empty empty 0 -10 0 12 #fcfcfc #000000 #000000 0 1;
#X obj 128 486 threshold~ 0 0 0 0;
#X obj 69 551 *~;
#X obj 190 41 *~ 0.5;
#X obj 250 40 scale~ 0 1 0.1 3;
#X obj 173 95 lop~ 10;
#X obj 241 97 lop~ 10;
#X floatatom 516 142 5 0 0 0 - - - 0;
#X obj 311 575 vline~;
#X obj 311 553 pack f 50;
#X obj 440 217 r \$0-update;
#X obj 424 245 snapshot~;
#X floatatom 424 269 10 0 0 0 - - - 0;
#X obj 397 151 vline~;
#X obj 397 129 pack f 50;
#X obj 744 40 phasor~ 0.1;
#X obj 202 637 clip~ 0 1;
#X connect 1 0 24 0;
#X connect 1 1 51 0;
#X connect 1 2 52 0;
#X connect 7 0 64 0;
#X connect 10 0 11 0;
#X connect 11 0 62 0;
#X connect 12 0 32 0;
#X connect 13 0 12 1;
#X connect 13 0 15 0;
#X connect 14 0 17 0;
#X connect 15 0 14 0;
#X connect 16 0 13 0;
#X connect 17 0 32 0;
#X connect 18 0 19 0;
#X connect 19 0 20 0;
#X connect 20 0 23 1;
#X connect 21 0 55 0;
#X connect 22 0 23 2;
#X connect 23 0 17 1;
#X connect 24 0 12 0;
#X connect 26 0 25 0;
#X connect 27 0 26 0;
#X connect 27 0 29 0;
#X connect 27 0 31 0;
#X connect 27 0 37 0;
#X connect 29 0 28 0;
#X connect 31 0 30 0;
#X connect 32 0 31 0;
#X connect 32 0 41 0;
#X connect 32 1 26 0;
#X connect 32 1 41 1;
#X connect 32 2 29 0;
#X connect 32 2 7 1;
#X connect 33 0 35 0;
#X connect 34 0 27 0;
#X connect 35 0 34 0;
#X connect 36 0 33 0;
#X connect 38 0 39 0;
#X connect 39 0 40 0;
#X connect 41 0 50 0;
#X connect 41 0 49 0;
#X connect 42 0 41 2;
#X connect 44 0 41 4;
#X connect 45 0 41 3;
#X connect 46 0 48 0;
#X connect 47 0 48 0;
#X connect 48 0 57 0;
#X connect 49 0 47 0;
#X connect 49 1 46 0;
#X connect 50 0 7 0;
#X connect 51 0 53 0;
#X connect 52 0 54 0;
#X connect 53 0 24 1;
#X connect 54 0 24 2;
#X connect 55 0 22 0;
#X connect 56 0 50 1;
#X connect 57 0 56 0;
#X connect 58 0 59 0;
#X connect 59 0 60 0;
#X connect 61 0 59 0;
#X connect 62 0 61 0;
#X connect 63 0 23 0;
#X connect 64 0 0 0;
#X connect 64 0 39 0;
#X restore 354 229 pd readAnalog;
#X obj 397 371 s~ breath;
#X obj 1599 -253 spigot;
#X obj -46 213;
#X text 33 365 Suck;
#X text 204 367 blow;
#X connect 1 0 2 0;
#X connect 2 0 6 0;
#X connect 3 0 7 0;
#X connect 3 0 5 0;
#X connect 6 0 7 0;
#X connect 7 0 8 0;
#X connect 8 0 9 0;
#X connect 10 0 2 0;
#X connect 11 0 12 0;
