#N canvas 673 150 1069 867 12;
#X text 44 5 Bob Kammauff (kmw3kx) 2/24/26 Pressure Sensor Reads Pressure Sensor & Print it to the console;
#X obj 58 63 bng 19 250 50 0 empty empty empty 0 -10 0 12 #fcfcfc #000000 #000000;
#X obj 35 122 tgl 19 0 empty empty empty 0 -10 0 12 #fcfcfc #000000 #000000 0 1;
#X obj 102 194 r~ breath;
#X obj 184 392 clip~ 0 1;
#X msg 653 402 0;
#X msg 518 413 1;
#X obj 536 467 tgl 19 0 empty empty empty 0 -10 0 12 #fcfcfc #000000 #000000 0 1;
#X obj 349 431 tgl 19 0 empty empty empty 0 -10 0 12 #fcfcfc #000000 #000000 0 1;
#X text 517 349 measured max was 0.1845;
#X obj 268 372 threshold~ 0.182 0 0.182 0;
#X text 289 347 measured min was 0.1824;
#X text -88 468 subtract from measured average: 0.1833;
#X obj 249 518 *~;
#X obj 428 514 *~;
#X text 315 325 Suck;
#X text 574 328 Blow;
#X obj 283 725 outlet~;
#X obj 455 724 outlet~;
#X obj 27 166 metro 1000;
#X obj 25 261 snapshot~;
#X floatatom 25 285 12 0 0 0 - - - 0;
#X obj 25 308 print breathSnap;
#X obj 265 573 clip~ 0 1;
#X obj 441 573 clip~ 0 1;
#X obj 186 447 -~ 0.1833;
#X msg 269 398 0;
#X msg 432 399 1;
#X obj 266 548 scale~ 0 -0.1833 0 1;
#X obj 277 690 pow~ 2;
#X msg 603 275 add2 \$1 0 \$1 0;
#X msg 728 277 set set;
#X msg 591 305 set 1.00452 0 1.00452 0;
#X obj 592 237 t b f b;
#X obj 322 511 * -1;
#X obj 316 614 r n_suck;
#X obj 339 696 print n_suck;
#X obj 340 483 vline~;
#X obj 340 461 pack f 50;
#X obj 529 518 vline~;
#X obj 529 496 pack f 50;
#X obj 316 638 scale 0 127 0.1 3;
#X obj 35 98 .loadbang;
#N canvas 14 192 877 520 readAnalog 0;
#X obj 191 365 outlet~;
#X obj 180 7 adc~ 3 4 5;
#X text 105 12 Bela A0-2;
#X text 454 80 A0 goes to the breath sensor;
#X text 393 152 A1 goes to the trigger pot (sets the threshold for the blowing);
#X text 391 206 A2 goes to the mapping pot (sets the exponent that the breath signal is scaled by);
#X obj 143 103 -~;
#X obj 180 82 /~ 2;
#X obj 174 147 -~ 0.8;
#X text 222 148 max breath reading;
#X obj 152 183 /~;
#X obj 162 226 *~ 0.9;
#X obj 162 250 +~ 0.1;
#X obj 196 287 pow~;
#X obj 177 51 lop~ 10;
#X obj 257 66 lop~ 10;
#X obj 240 177 scale~ 0 1 0.1 3;
#X text 8 129 Using similar logic as scale~;
#X obj 316 378 dac~ 27 28 29;
#X connect 1 0 6 0;
#X connect 1 0 18 0;
#X connect 1 1 14 0;
#X connect 1 1 18 1;
#X connect 1 2 15 0;
#X connect 6 0 10 0;
#X connect 7 0 6 1;
#X connect 7 0 8 0;
#X connect 8 0 10 1;
#X connect 10 0 11 0;
#X connect 11 0 12 0;
#X connect 12 0 13 0;
#X connect 13 0 0 0;
#X connect 13 0 18 2;
#X connect 14 0 7 0;
#X connect 15 0 16 0;
#X connect 16 0 13 1;
#X restore 862 118 pd readAnalog;
#X obj 905 260 s~ breath;
#X obj 1060 210 sig~;
#X floatatom 1086 147 5 0 1000 0 - - - 0;
#X floatatom 1119 202 5 0 0 0 - - - 0;
#X obj 1086 177 / 1000;
#X obj 900 220 *~;
#X obj 1599 -253 spigot;
#X obj 965 168 tgl 19 0 empty empty empty 0 -10 0 12 #fcfcfc #000000 #000000 0 1;
#X obj 965 216 tgl 19 0 empty empty empty 0 -10 0 12 #fcfcfc #000000 #000000 0 1;
#X obj 965 192 == 0;
#X obj 977 136 loadbang;
#X obj 1016 218 *~;
#X obj -46 213;
#X obj 489 375 threshold~ 0.1 0 0.1 0;
#X obj 441 549 scale~ 0.1 1 0 1;
#X connect 1 0 2 0;
#X connect 2 0 19 0;
#X connect 3 0 4 0;
#X connect 3 0 10 0;
#X connect 3 0 20 0;
#X connect 3 0 57 0;
#X connect 4 0 14 0;
#X connect 4 0 25 0;
#X connect 5 0 7 0;
#X connect 6 0 7 0;
#X connect 7 0 40 0;
#X connect 8 0 38 0;
#X connect 10 0 26 0;
#X connect 10 1 27 0;
#X connect 13 0 28 0;
#X connect 14 0 58 0;
#X connect 19 0 20 0;
#X connect 20 0 21 0;
#X connect 21 0 22 0;
#X connect 23 0 29 0;
#X connect 24 0 18 0;
#X connect 25 0 13 0;
#X connect 26 0 8 0;
#X connect 27 0 8 0;
#X connect 28 0 23 0;
#X connect 29 0 17 0;
#X connect 30 0 32 0;
#X connect 31 0 32 0;
#X connect 32 0 57 0;
#X connect 33 0 32 0;
#X connect 33 1 30 0;
#X connect 33 2 31 0;
#X connect 34 0 28 2;
#X connect 35 0 41 0;
#X connect 37 0 13 1;
#X connect 38 0 37 0;
#X connect 39 0 14 1;
#X connect 40 0 39 0;
#X connect 41 0 36 0;
#X connect 41 0 29 1;
#X connect 42 0 2 0;
#X connect 43 0 49 0;
#X connect 45 0 55 1;
#X connect 46 0 48 0;
#X connect 48 0 45 0;
#X connect 48 0 47 0;
#X connect 49 0 44 0;
#X connect 51 0 49 1;
#X connect 51 0 53 0;
#X connect 52 0 55 0;
#X connect 53 0 52 0;
#X connect 54 0 51 0;
#X connect 55 0 44 0;
#X connect 57 0 6 0;
#X connect 57 1 5 0;
#X connect 58 0 24 0;
