#N canvas 875 352 450 300 12;
#X obj 139 52 r encoder_pos;
#X obj 213 209 print encoder;
#X obj 150 156 change;
#X obj 136 218 outlet;
#X obj 139 76 div 2;
#X obj 57 7 loadbang;
#X msg 57 31 0;
#X obj 141 116 clip -8 8;
#X connect 0 0 4 0;
#X connect 2 0 1 0;
#X connect 2 0 3 0;
#X connect 4 0 7 0;
#X connect 5 0 6 0;
#X connect 6 0 4 0;
#X connect 7 0 2 0;
