#N canvas 160 160 450 300 12;
#X obj 89 63 inlet~;
#N canvas 1099 491 756 556 delayLine 0;
#X obj 95 53 inlet~;
#X obj 203 57 inlet~;
#X obj 208 221 outlet~;
#X obj 320 59 block~ 1;
#X obj 53 126 delwrite~ \$0-delay 1000;
#X obj 202 152 delread4~ \$0-delay;
#X connect 0 0 4 0;
#X connect 1 0 5 0;
#X connect 1 1 5 0;
#X connect 5 0 2 0;
#X restore 99 184 pd delayLine;
#X obj 55 142 +~;
#X obj 23 58 inlet~;
#X obj 101 260 outlet~;
#X obj 182 244 s~ \$0-feedback;
#X obj 254 107 biquad~;
#X connect 0 0 2 0;
#X connect 1 0 4 0;
#X connect 1 0 5 0;
#X connect 2 0 1 0;
#X connect 3 0 1 1;
