#N canvas 128 128 662 300 12;
#X obj 203 67 mpkccknob, f 23;
#X obj 93 219 s n_suck;
#X obj 166 223 s n_blow;
#X obj 292 183 s filterFreq;
#X obj 302 155 s filterQ;
#X obj 238 225 s port;
#X obj 310 240 pack f f;
#X obj 332 211 t b f;
#X obj 395 117 s FM;
#X obj 558 133 s delay;
#X obj 565 196 s decay;
#X obj 210 138 scale 0 127 0 1000;
#X obj 46 138 .print n_suck;
#X obj 50 170 .print n_blow;
#X obj 187 201 .print port;
#X obj 311 264 .print filter;
#X obj 377 147 .print FM;
#X obj 610 240 .print decay;
#X obj 558 157 .print delay;
#X connect 0 0 1 0;
#X connect 0 0 12 0;
#X connect 0 1 2 0;
#X connect 0 1 13 0;
#X connect 0 2 11 0;
#X connect 0 3 3 0;
#X connect 0 3 6 0;
#X connect 0 4 4 0;
#X connect 0 4 7 0;
#X connect 0 5 8 0;
#X connect 0 5 16 0;
#X connect 0 6 9 0;
#X connect 0 6 18 0;
#X connect 0 7 10 0;
#X connect 0 7 17 0;
#X connect 6 0 15 0;
#X connect 7 0 6 0;
#X connect 7 1 6 1;
#X connect 11 0 5 0;
#X connect 11 0 14 0;
