#N canvas 255 334 730 518 12;
#X text 39 22 Bob Kammauff (kmw3kx) MPR Capacitive Touch;
#X obj 62 84 r mpr121;
#X obj 67 230 & 2;
#X obj 119 231 & 4;
#X obj 165 230 & 8;
#X obj 218 231 & 16;
#X obj 71 322 tgl 19 0 empty empty empty 0 -10 0 12 #fcfcfc #000000 #000000 0 1;
#X obj 120 322 tgl 19 0 empty empty empty 0 -10 0 12 #fcfcfc #000000 #000000 0 1;
#X obj 166 312 tgl 19 0 empty empty empty 0 -10 0 12 #fcfcfc #000000 #000000 0 1;
#X obj 219 313 tgl 19 0 empty empty empty 0 -10 0 12 #fcfcfc #000000 #000000 0 1;
#X obj 139 426 print touch;
#X obj 60 126 change;
#X obj 60 454 outlet;
#X floatatom 88 162 5 0 32 0 - - - 0;
#X obj 88 185 t f f;
#X obj 67 254 == 2;
#X obj 119 255 == 4;
#X obj 165 254 == 8;
#X obj 218 255 == 16;
#X obj 22 230 & 1;
#X obj 33 312 tgl 19 0 empty empty empty 0 -10 0 12 #fcfcfc #000000 #000000 0 1;
#X obj 22 254 == 1;
#X obj 52 371 pack f f f f f;
#X connect 1 0 11 0;
#X connect 2 0 15 0;
#X connect 3 0 16 0;
#X connect 4 0 17 0;
#X connect 5 0 18 0;
#X connect 6 0 22 1;
#X connect 7 0 22 2;
#X connect 8 0 22 3;
#X connect 9 0 22 4;
#X connect 11 0 13 0;
#X connect 13 0 14 0;
#X connect 14 0 19 0;
#X connect 14 1 3 0;
#X connect 14 1 4 0;
#X connect 14 1 5 0;
#X connect 14 1 2 0;
#X connect 15 0 6 0;
#X connect 16 0 7 0;
#X connect 17 0 8 0;
#X connect 18 0 9 0;
#X connect 19 0 21 0;
#X connect 20 0 22 0;
#X connect 21 0 20 0;
#X connect 22 0 10 0;
#X connect 22 0 12 0;
