#N canvas 507 282 1301 752 12;
#X declare -path commonAbstract;
#X obj 175 87 inlet~;
#X obj 297 94 inlet~;
#X text 127 86 suck;
#X text 258 95 blow;
#X text 11 91 pitch;
#X obj 117 436 outlet~;
#X obj 60 87 inlet~;
#X text 51 31 Bob Kammauff (kmw3kx) 3/24/26 Subtractive Synth w/ MIDI Controller for Exercise 4;
#X obj 360 261 vcf~ 1;
#X obj 373 164 r filterFreq;
#X obj 408 205 r filterQ;
#X obj 373 188 mtof;
#X obj 408 229 scale 0 127 1 20;
#X obj 452 100 declare -path commonAbstract;
#X obj 561 333 output~;
#X obj 73 367 s~ saw;
#X obj 571 237 r~ saw;
#X obj 71 197 -~ 0.5;
#X obj 82 326 *~;
#X obj 176 305 pow~ 0.5;
#X obj 303 332 hsl 162 19 0 2 0 0 empty empty empty -2 -10 0 12 #fcfcfc #000000 #000000 0 1;
#X obj 71 221 abs~;
#X obj 845 440 oscilloscope;
#A saved 0 400 1 -1;
#X obj 12 281 *~ 2;
#X obj 85 141 phasor~ 110;
#X obj 167 337 -~ 0.5;
#X obj 167 361 *~ 2;
#X connect 1 0 18 1;
#X connect 9 0 11 0;
#X connect 10 0 12 0;
#X connect 11 0 8 1;
#X connect 12 0 8 2;
#X connect 16 0 14 0;
#X connect 16 0 22 0;
#X connect 17 0 21 0;
#X connect 18 0 15 0;
#X connect 19 0 25 0;
#X connect 21 0 23 0;
#X connect 23 0 19 0;
#X connect 24 0 17 0;
#X connect 25 0 26 0;
#X connect 26 0 18 0;
