#N canvas 911 282 897 752 12;
#X obj 175 87 inlet~;
#X obj 515 128 inlet~;
#X text 127 86 suck;
#X text 470 126 blow;
#X text 11 91 pitch;
#X obj 84 715 outlet~;
#X obj 60 87 inlet~;
#X text 265 3 Bob Kammauff (kmw3kx) 4/9/26 I wanna make a sound that I'd actually want to play;
#X obj 182 515 *~;
#X obj 98 387 osc~;
#X obj 98 366 +~;
#X obj 187 314 *~;
#X obj 273 282 *~;
#X obj 910 124 hsl 128 15 0 1 0 0 empty empty empty -2 -8 0 10 #c4fcfc #000000 #000000 0 1;
#X text 905 100 output level in dB [0.0-1.0];
#X text 683 385 MUSI 4610 -LAB 5: MAPPING;
#X text 705 404 This is a simple FM synth with 6 control parameters: 1) Note on/off [0 or 1]. 2) MIDI pitch [0 to 127] \, 3) Modulation Index Envelope time \, 4) Modulation Index Envelope Sustain Level \, 5) Maximum Modulation Index \, 6) Output level. All of these except the first two have a range of 0 to 1.0.;
#X floatatom 541 413 5 0 0 0 - - - 0;
#X obj 541 383 snapshot~;
#X obj 565 325 metro 200;
#X floatatom 623 413 5 0 0 0 - - - 0;
#X obj 623 383 snapshot~;
#X obj 587 241 tgl 19 0 empty empty empty 0 -10 0 12 #fcfcfc #000000 #000000 0 1;
#X obj 587 289 tgl 19 0 empty empty empty 0 -10 0 12 #fcfcfc #000000 #000000 0 1;
#X obj 587 265 == 0;
#X obj 599 209 loadbang;
#X obj 616 354 s \$0-update;
#X obj 383 161 pow~ 0.8;
#X obj 187 282 osc~;
#X obj 336 185 scale~ 0 1 -1 10;
#X obj 316 234 clip~ 0 20;
#X obj 173 440 bp~ 503;
#X obj 173 464 *~ 0.1;
#X obj 414 299 clip~ 0.5 1;
#X obj 414 323 scale~ 0.5 1 0 0.5;
#X obj 332 386 *~;
#X obj 297 333 osc~;
#X obj 318 291 /~ 0.488;
#X obj 161 587 clip~ -1 1;
#X obj 127 630 lop~ 10000;
#X connect 1 0 8 1;
#X connect 1 0 27 0;
#X connect 1 0 18 0;
#X connect 1 0 33 0;
#X connect 6 0 10 0;
#X connect 6 0 12 0;
#X connect 6 0 28 0;
#X connect 6 0 37 0;
#X connect 8 0 38 0;
#X connect 9 0 8 0;
#X connect 9 0 31 0;
#X connect 10 0 9 0;
#X connect 11 0 10 1;
#X connect 12 0 11 1;
#X connect 18 0 17 0;
#X connect 19 0 18 0;
#X connect 19 0 21 0;
#X connect 19 0 26 0;
#X connect 21 0 20 0;
#X connect 22 0 24 0;
#X connect 23 0 19 0;
#X connect 24 0 23 0;
#X connect 25 0 22 0;
#X connect 27 0 29 0;
#X connect 28 0 11 0;
#X connect 29 0 30 0;
#X connect 30 0 12 1;
#X connect 31 0 32 0;
#X connect 32 0 8 0;
#X connect 33 0 34 0;
#X connect 34 0 35 1;
#X connect 36 0 35 0;
#X connect 37 0 36 0;
#X connect 38 0 39 0;
#X connect 39 0 5 0;
