#N canvas 484 310 660 570 12;
#X text 10 88 Bela A0-2;
#X obj 367 397 dac~ 1 2;
#X obj 385 205 *~;
#X obj 104 165 dac~ 27 28 29 30;
#X obj 94 90 adc~ 3 4 5 6;
#X obj 461 203 *~;
#X obj 534 208 *~;
#X obj 458 269 *~;
#X obj 455 240 osc~ 440;
#X obj 383 166 osc~ 110;
#X obj 459 164 osc~ 220;
#X obj 532 169 osc~ 330;
#X connect 2 0 1 0;
#X connect 2 0 1 1;
#X connect 4 0 2 1;
#X connect 4 0 3 0;
#X connect 4 1 3 1;
#X connect 4 1 5 1;
#X connect 4 2 3 2;
#X connect 4 2 6 1;
#X connect 4 3 3 3;
#X connect 4 3 7 1;
#X connect 5 0 1 0;
#X connect 5 0 1 1;
#X connect 6 0 1 0;
#X connect 6 0 1 1;
#X connect 7 0 1 0;
#X connect 7 0 1 1;
#X connect 8 0 7 0;
#X connect 9 0 2 0;
#X connect 10 0 5 0;
#X connect 11 0 6 0;
