#N canvas 507 282 1301 752 12;
#X declare -path commonAbstract;
#X obj 175 87 inlet~;
#X obj 278 77 inlet~;
#X text 127 86 suck;
#X text 239 81 blow;
#X text 11 91 pitch;
#X obj 62 679 outlet~;
#X obj 60 87 inlet~;
#X text 51 31 Bob Kammauff (kmw3kx) 3/24/26 Subtractive Synth w/ MIDI Controller for Exercise 4;
#X obj 59 449 vcf~ 1;
#X obj 110 298 r filterFreq;
#X obj 203 366 r filterQ;
#X obj 177 411 scale 0 127 1 20;
#X obj 452 100 declare -path commonAbstract;
#X obj 604 682 output~;
#X obj 71 197 -~ 0.5;
#X obj 108 554 *~;
#X obj 215 233 pow~ 0.5;
#X obj 71 221 abs~;
#X obj 561 457 oscilloscope;
#A saved 0 400 1 -1;
#X obj 69 157 phasor~ 110;
#X obj 54 290 -~ 0.5;
#X obj 52 321 *~ 2;
#X obj 50 260 *~ 2;
#X obj 111 349 pack f 5;
#X floatatom 229 333 5 0 0 0 - - - 0;
#X text 268 329 portamento (ms);
#X obj 111 373 vline~;
#X obj 319 262 r port;
#X floatatom 110 322 5 0 0 0 - - - 0;
#X floatatom 203 390 5 0 0 0 - - - 0;
#X obj 113 399 mtof~;
#X floatatom 177 435 5 0 0 0 - - - 0;
#X obj 204 500 *~;
#X obj 62 124 +~;
#X obj 383 206 osc~ 1;
#X obj 315 141 *~;
#X obj 411 122 r FM;
#X obj 411 170 sig~;
#X obj 189 145 *~;
#X obj 411 146 scale 0 127 3 100;
#X obj 149 123 *~;
#X obj 208 114 /~ 2;
#X obj 671 238 r delay;
#X floatatom 671 286 5 0 0 0 - - - 0;
#X obj 325 551 r decay;
#X obj 325 575 scale 0 127 0 0.9;
#X obj 231 623 *~;
#X obj 325 599 pack f 10;
#X obj 325 623 vline~;
#X floatatom 425 599 5 0 0 0 - - - 0;
#X obj 671 262 scale 0 127 0 5000;
#X obj 228 688 delwrite~ \$0-delay 5000;
#X obj 490 382 delread4~ \$0-delay;
#X obj 635 330 pack f 10;
#X obj 635 354 vline~;
#X connect 1 0 15 1;
#X connect 1 0 32 1;
#X connect 1 0 35 0;
#X connect 1 0 41 0;
#X connect 6 0 33 0;
#X connect 6 0 40 0;
#X connect 8 0 15 0;
#X connect 8 1 32 0;
#X connect 9 0 28 0;
#X connect 10 0 11 0;
#X connect 10 0 29 0;
#X connect 11 0 8 2;
#X connect 11 0 31 0;
#X connect 14 0 17 0;
#X connect 15 0 46 0;
#X connect 17 0 22 0;
#X connect 19 0 14 0;
#X connect 20 0 21 0;
#X connect 21 0 8 0;
#X connect 22 0 20 0;
#X connect 23 0 26 0;
#X connect 24 0 23 1;
#X connect 26 0 30 0;
#X connect 27 0 24 0;
#X connect 27 0 53 1;
#X connect 28 0 23 0;
#X connect 30 0 8 1;
#X connect 32 0 5 0;
#X connect 32 0 51 0;
#X connect 33 0 19 0;
#X connect 34 0 38 1;
#X connect 35 0 34 0;
#X connect 36 0 39 0;
#X connect 37 0 35 1;
#X connect 38 0 33 1;
#X connect 39 0 37 0;
#X connect 40 0 38 0;
#X connect 41 0 40 1;
#X connect 42 0 50 0;
#X connect 43 0 53 0;
#X connect 44 0 45 0;
#X connect 45 0 47 0;
#X connect 45 0 49 0;
#X connect 46 0 5 0;
#X connect 46 0 51 0;
#X connect 47 0 48 0;
#X connect 48 0 46 1;
#X connect 50 0 43 0;
#X connect 52 0 46 0;
#X connect 53 0 54 0;
#X connect 54 0 52 0;
