#N canvas 1119 225 737 517 12;
#X text 662 434 Bob Kammauff (kmw3kx) 6/18/2025 MPK Knobs;
#X obj 281 36 ctlin;
#X floatatom 284 121 5 0 0 0 - - - 0;
#X floatatom 294 96 5 0 0 0 - - - 0;
#X floatatom 312 69 5 0 0 0 - - - 0;
#X obj 110 341 outlet;
#X obj 139 216 == 70;
#X obj 110 261 spigot;
#X floatatom 112 298 5 0 0 0 - - - 0;
#X obj 174 343 outlet;
#X obj 174 263 spigot;
#X floatatom 176 300 5 0 0 0 - - - 0;
#X obj 203 218 == 71;
#X obj 238 343 outlet;
#X obj 238 263 spigot;
#X floatatom 240 300 5 0 0 0 - - - 0;
#X obj 267 218 == 72;
#X obj 297 344 outlet;
#X obj 297 264 spigot;
#X floatatom 299 301 5 0 0 0 - - - 0;
#X obj 326 219 == 73;
#X obj 355 345 outlet;
#X obj 355 265 spigot;
#X floatatom 357 302 5 0 0 0 - - - 0;
#X obj 420 345 outlet;
#X obj 420 265 spigot;
#X floatatom 422 302 5 0 0 0 - - - 0;
#X obj 384 220 == 74;
#X obj 449 220 == 75;
#X obj 487 347 outlet;
#X obj 487 267 spigot;
#X floatatom 489 304 5 0 0 0 - - - 0;
#X obj 516 222 == 76;
#X obj 546 347 outlet;
#X obj 546 267 spigot;
#X floatatom 548 304 5 0 0 0 - - - 0;
#X obj 575 222 == 77;
#X obj 169 168 inlet;
#X obj 237 168 inlet;
#X obj 292 168 inlet;
#X obj 360 168 inlet;
#X obj 414 168 inlet;
#X obj 482 168 inlet;
#X obj 536 165 inlet;
#X obj 604 165 inlet;
#X connect 1 0 2 0;
#X connect 1 1 3 0;
#X connect 1 2 4 0;
#X connect 2 0 7 0;
#X connect 2 0 10 0;
#X connect 2 0 14 0;
#X connect 2 0 18 0;
#X connect 2 0 22 0;
#X connect 2 0 25 0;
#X connect 2 0 30 0;
#X connect 2 0 34 0;
#X connect 3 0 6 0;
#X connect 3 0 12 0;
#X connect 3 0 16 0;
#X connect 3 0 20 0;
#X connect 3 0 27 0;
#X connect 3 0 28 0;
#X connect 3 0 32 0;
#X connect 3 0 36 0;
#X connect 6 0 7 1;
#X connect 7 0 8 0;
#X connect 8 0 5 0;
#X connect 10 0 11 0;
#X connect 11 0 9 0;
#X connect 12 0 10 1;
#X connect 14 0 15 0;
#X connect 15 0 13 0;
#X connect 16 0 14 1;
#X connect 18 0 19 0;
#X connect 19 0 17 0;
#X connect 20 0 18 1;
#X connect 22 0 23 0;
#X connect 23 0 21 0;
#X connect 25 0 26 0;
#X connect 26 0 24 0;
#X connect 27 0 22 1;
#X connect 28 0 25 1;
#X connect 30 0 31 0;
#X connect 31 0 29 0;
#X connect 32 0 30 1;
#X connect 34 0 35 0;
#X connect 35 0 33 0;
#X connect 36 0 34 1;
#X connect 37 0 6 1;
#X connect 38 0 12 1;
#X connect 39 0 16 1;
#X connect 40 0 20 1;
#X connect 41 0 27 1;
#X connect 42 0 28 1;
#X connect 43 0 32 1;
#X connect 44 0 36 1;
