#N canvas 218 49 1630 973 12;
#N canvas 92 92 450 278 (subpatch) 0;
#X array \$0-oscilloscope 400 float 4;
#X coords 0 1 400 -1 200 140 1 0 0;
#X restore 130 114 graph;
#X obj 598 545 inlet~;
#X obj 476 484 metro;
#X msg 472 425 1;
#X floatatom 1282 382 5 0 0 0 - - - 0;
#X floatatom 1373 382 5 0 0 0 - - - 0;
#X floatatom 1453 380 5 0 0 0 - - - 0;
#X obj 1452 405 t b f;
#X obj 1374 410 t b f;
#X text 1216 666 bounds x1 y1 x2 y2;
#X msg 1123 601 resize \$1;
#X floatatom 101 111 3 0 0 0 - - - 0;
#X floatatom 100 246 3 0 0 0 - - - 0;
#X floatatom 262 260 5 0 0 0 - - - 0;
#X text 134 261 <--size (samples);
#X text 301 261 -->;
#X obj 525 18 loadbang;
#X obj 988 248 t l l, f 33;
#X msg 38 212 set \$1;
#X obj 1214 498 pack 0 f f f;
#X msg 1217 597 bounds \$1 \$2 \$3 \$4;
#X obj 887 481 unpack f f f f;
#X obj 1283 410 t b f;
#X msg 48 57 set \$1;
#X msg 988 173 0 1 400 -1;
#X obj 474 595 tabwrite~ \$0-oscilloscope;
#X obj 1215 644 s \$0-oscilloscope;
#X text 543 848 v3-can have multiple oscilloscopes;
#X obj 139 796 bang~;
#X obj 307 805 loadbang;
#X msg 307 829 0;
#X obj 141 875 tabwrite \$0-oscilloscope;
#X msg 139 820 0;
#X obj 521 520 bng 19 250 50 0 empty empty empty 0 -10 0 12 #fcfcfc #000000 #000000;
#X floatatom 262 280 5 0 0 0 - - - 0;
#X text 136 283 update rate (ms):;
#X text 166 775 hack to force array update;
#X text 543 865 v4-change the size of the oscilloscope window;
#X text 543 885 v5-save the window size + ranges;
#X obj 686 225 savestate;
#X obj 770 224 pack f f f f;
#X obj 664 288 unpack f f f f;
#X obj 663 255 list;
#X obj 356 296 / 44.1;
#X obj 47 25 r \$0-upper;
#X obj 997 584 s \$0-upper;
#X obj 995 557 s \$0-size;
#X obj 383 72 r \$0-size;
#X obj 363 222 s \$0-size;
#X msg 383 96 set \$1;
#X obj 1372 356 r \$0-size;
#X obj 995 530 s \$0-lower;
#X obj 3 185 r \$0-lower;
#X obj 693 405 s \$0-upper;
#X obj 1 135 s \$0-upper;
#X obj 1282 354 r \$0-upper;
#X obj 828 158 r \$0-upper;
#X obj 12 282 s \$0-lower;
#X obj 851 188 r \$0-lower;
#X obj 723 443 s \$0-lower;
#X obj 1453 355 r \$0-lower;
#X obj 788 130 r \$0-size;
#X obj 1124 576 r \$0-size;
#X obj 677 365 s \$0-size;
#X obj 355 272 r \$0-size;
#X obj 525 71 t b b b, f 55;
#X connect 1 0 25 0;
#X connect 2 0 25 0;
#X connect 2 0 33 0;
#X connect 3 0 2 0;
#X connect 4 0 22 0;
#X connect 5 0 8 0;
#X connect 6 0 7 0;
#X connect 7 0 19 0;
#X connect 7 1 19 3;
#X connect 8 0 19 0;
#X connect 8 1 19 2;
#X connect 10 0 26 0;
#X connect 11 0 54 0;
#X connect 12 0 57 0;
#X connect 13 0 48 0;
#X connect 16 0 65 0;
#X connect 17 0 21 0;
#X connect 17 1 19 0;
#X connect 18 0 12 0;
#X connect 19 0 20 0;
#X connect 20 0 26 0;
#X connect 21 1 45 0;
#X connect 21 2 46 0;
#X connect 21 3 51 0;
#X connect 22 0 19 0;
#X connect 22 1 19 1;
#X connect 23 0 11 0;
#X connect 24 0 17 0;
#X connect 28 0 32 0;
#X connect 29 0 30 0;
#X connect 30 0 31 1;
#X connect 32 0 31 0;
#X connect 34 0 2 1;
#X connect 39 0 42 1;
#X connect 39 1 40 0;
#X connect 40 0 39 0;
#X connect 41 1 63 0;
#X connect 41 2 53 0;
#X connect 41 3 59 0;
#X connect 42 0 41 0;
#X connect 43 0 34 0;
#X connect 44 0 23 0;
#X connect 47 0 49 0;
#X connect 49 0 13 0;
#X connect 50 0 5 0;
#X connect 52 0 18 0;
#X connect 55 0 4 0;
#X connect 56 0 40 2;
#X connect 58 0 40 3;
#X connect 60 0 6 0;
#X connect 61 0 40 1;
#X connect 62 0 10 0;
#X connect 64 0 43 0;
#X connect 65 0 3 0;
#X connect 65 1 42 0;
#X connect 65 2 24 0;
#X coords 0 -1 1 1 230 200 2 100 100;
