#N canvas 349 118 909 797 12;
#X obj 82 191 -~;
#X obj 82 92 inlet~;
#X obj 82 458 outlet~;
#X obj 82 438 +~;
#X obj 82 378 *~;
#X obj 82 317 /~;
#X text 305 285 Same as the scale~ abstraction;
#X text 322 318 But can now take signal inputs!;
#X obj 122 119 inlet~;
#X obj 134 234 -~;
#X obj 167 119 inlet~;
#X obj 212 119 inlet~;
#X obj 257 119 inlet~;
#X obj 239 363 -~;
#X connect 0 0 5 0;
#X connect 1 0 0 0;
#X connect 3 0 2 0;
#X connect 4 0 3 0;
#X connect 5 0 4 0;
#X connect 8 0 0 1;
#X connect 8 0 9 1;
#X connect 9 0 5 1;
#X connect 10 0 9 0;
#X connect 11 0 13 1;
#X connect 11 0 3 1;
#X connect 12 0 13 0;
#X connect 13 0 4 1;
