#N canvas 953 324 549 667 12;
#X obj 82 119 inlet;
#X obj 82 191 -;
#X obj 82 317 /;
#X obj 82 378 *;
#X obj 82 438 +;
#X obj 82 458 outlet;
#X obj 122 119 inlet;
#X obj 122 176 t a a;
#X obj 167 119 inlet;
#X obj 149 262 pack f f;
#X msg 149 282 \$1 \$2;
#X obj 149 302 -;
#X obj 167 229 t b a;
#X obj 212 119 inlet;
#X obj 212 281 t a a;
#X obj 257 119 inlet;
#X obj 239 323 pack f f;
#X msg 239 343 \$1 \$2;
#X obj 239 363 -;
#X obj 257 290 t b a;
#X obj 327 119 loadbang;
#X obj 327 139 t b b b b;
#X obj 129 154 f \$1;
#X obj 264 268 f \$4;
#X obj 219 259 f \$3;
#X obj 174 207 f \$2;
#X connect 0 0 1 0;
#X connect 1 0 2 0;
#X connect 2 0 3 0;
#X connect 3 0 4 0;
#X connect 4 0 5 0;
#X connect 6 0 7 0;
#X connect 7 0 1 1;
#X connect 7 1 9 0;
#X connect 8 0 12 0;
#X connect 9 0 10 0;
#X connect 10 0 11 0;
#X connect 11 0 2 1;
#X connect 12 0 9 0;
#X connect 12 1 9 1;
#X connect 13 0 14 0;
#X connect 14 0 16 0;
#X connect 14 1 4 1;
#X connect 15 0 19 0;
#X connect 16 0 17 0;
#X connect 17 0 18 0;
#X connect 18 0 3 1;
#X connect 19 0 16 0;
#X connect 19 1 16 1;
#X connect 20 0 21 0;
#X connect 21 0 22 0;
#X connect 21 1 25 0;
#X connect 21 2 24 0;
#X connect 21 3 23 0;
#X connect 22 0 7 0;
#X connect 23 0 19 0;
#X connect 24 0 14 0;
#X connect 25 0 12 0;
